#!OML:ASF F:\VICON\USERDATA\INSTALL\rory3\rory3.ASF
:FULLY-SPECIFIED
:DEGREES
69
root 0.4011914919207502 17.73203117132332 22.102477556883944 -0.29471770131142994 1.6275547685124536 2.8729997689181226
lfemur 16.482145984199132 -5.753346387403358 -27.15573796798204
ltibia 16.9802978780044
lfoot -2.783607187487982 -4.023764340152467
ltoes -11.154114761357253
rfemur -28.142521710768975 5.256886121001563 18.115833502719813
rtibia 24.336729849672107
rfoot -9.13670916216679 -9.724755464481188
rtoes -2.589907739954873
lowerback nan -0.9559630205470843 -3.952630184063149
upperback 0.7071332352147808 -1.5685583679013764 1.4466328557062544
thorax -4.446504961497156 -0.7427061132392199 3.6009219630710967
lowerneck -16.963811052697853 -2.566989504037274 -2.614813302176228
upperneck 20.15495237980216 -3.2747680100041596 1.585494832097008
head 9.137195857583034 -1.5476772702335528 0.5165396371960327
lclavicle -1.4930514919642706e-15 2.733374899713447e-16
lhumerus -23.667575990025647 -4.592483607455485 83.12601221368733
lradius 31.08934375631887
lwrist 8.737257127283769
lhand -28.710287824037103 21.476078257154725
lfingers nan
lthumb -1.8294506984844079 52.00156741783949
rclavicle -1.5323757468640454e-15 2.691705255455534e-16
rhumerus -31.47037915827707 -23.48214589051984 -75.83884210914975
rradius 23.358520607142488
rwrist 7.756850338901799
rhand -17.861464762877137 nan
rfingers nan
rthumb 8.261572411430565 -7.5546268912748396
70
root 0.3132740930476362 17.655844424236925 22.953681426411613 -0.7934287077998148 1.0266514334513919 2.1347688881910973
lfemur 16.03529536805723 -6.920821970501425 -26.30839124160272
ltibia 22.57940125240514
lfoot -1.8503171876389435 -5.658031177316049
ltoes -11.77270791980325
rfemur -27.498041482269983 5.146902631045885 19.693477021832084
rtibia 27.389130422622166
rfoot -6.873305105159096 -6.669240257582049
rtoes -1.2168988857570882
lowerback nan -0.926780000747412 -3.5505667330086537
upperback 0.707333656873153 -1.452995428542533 1.6291581036657707
thorax -4.422226546574197 -0.6871594942269212 3.3890462913852746
lowerneck -16.993579277335908 -2.5128047651396463 -2.572488483492586
upperneck 20.249703734991545 -3.185845292591908 1.4845743193643235
head 9.178873225999844 -1.5177834760124083 0.48717478063635433
lclavicle -1.3994659699790656e-15 2.9916578404346154e-16
lhumerus -24.12584820947422 -4.0555930140823255 83.29136665820167
lradius 30.884285378067766
lwrist 8.609487525043491
lhand -28.92523086168027 21.229360557202508
lfingers nan
lthumb -2.0390398494292863 51.7513355304981
rclavicle -1.4146140991906078e-15 2.988048811930076e-16
rhumerus -31.640239097673373 -24.264506784899922 -75.3254833977014
rradius 22.824392662394782
rwrist 8.555672466728925
rhand -17.783550885124093 nan
rfingers nan
rthumb 8.348810395542275 -7.638905737970958
71
root 0.22992432615778668 17.612015902798905 24.30861062769481 -1.4815807111801311 0.39102424401357627 0.764643863103776
lfemur 13.054508974289842 -6.534478052533453 -24.47778061540838
ltibia 31.21949019415222
lfoot 1.7277597748322213 -7.985587750287478
ltoes -12.858421826421079
rfemur -26.13744390669622 4.912967727064259 22.02544262340636
rtibia 29.75344473521386
rfoot -5.466537277537409 -3.966892688700439
rtoes 2.78616319595522
lowerback nan -0.8687249731211572 -2.4610925807814565
upperback 0.7009619097566866 -1.2385083751053996 1.9375560898311153
thorax -4.431828427911082 -0.5919218618412796 3.0330400325725058
lowerneck -16.967410995412287 -2.4726186989213566 -2.5133379364915096
upperneck 20.31556462611044 -3.1231572677375268 1.395177689052991
head 9.2069045921569 -1.4982622601245736 0.45831110190838364
lclavicle -1.5024627297879458e-15 2.4244929168955463e-16
lhumerus -24.846378825582004 -3.4699454480544656 83.52266714184837
lradius 30.469512534873854
lwrist 8.264611462571947
lhand -28.815985578098147 21.37384409134216
lfingers nan
lthumb -1.888284437053107 52.000549258967055
rclavicle -1.4665524043289777e-15 2.762599216139389e-16
rhumerus -31.55747826830145 -24.38424436590198 -75.24350531099824
rradius 22.524561830784187
rwrist 8.801356751217174
rhand -17.683984426177382 nan
rfingers nan
rthumb 8.43164482084086 -7.778724322369885
72
root 0.14179976836243013 17.646544522757747 25.5334869763888 -2.2709549412460164 -0.05276090130700384 -0.8990242285263264
lfemur 8.702609061401464 -5.456682843329583 -21.773949665494378
ltibia 41.1620809896678
lfoot 8.029175208858483 -12.302631081332562
ltoes -8.483774310408219
rfemur -23.33860781200252 5.131774641055875 24.728846436085956
rtibia 30.376389423808558
rfoot -5.198171005449678 -3.2559710523555006
rtoes 6.51034053218188
lowerback nan -0.7507734609286275 -0.8373504826121729
upperback 0.6778697196987833 -0.8904260750347572 2.3257675739380472
thorax -4.473328631411517 -0.44452870418119883 2.52820165533201
lowerneck -16.848452704453926 -2.4541298288138407 -2.421958330669854
upperneck 20.334354331659636 -3.100000645893118 1.333140291099605
head 9.21192356815529 -1.4924285626981608 0.4340830917410442
lclavicle -1.5632814720166406e-15 1.3196053223223554e-16
lhumerus -25.789568080980555 -2.9452692126894107 83.79661817800199
lradius 29.948924138233828
lwrist 7.685214598109956
lhand -28.35739037393305 21.89864138468704
lfingers nan
lthumb -1.4013018578507013 52.662785365841955
rclavicle -1.5394069958865241e-15 1.536612006877814e-16
rhumerus -31.17120375482335 -23.903018906543046 -75.61772337138544
rradius 22.42357156433988
rwrist 8.68732703508202
rhand -17.573132028527656 nan
rfingers nan
rthumb 8.531422551786795 -7.8961012762646074
